<?xml version="1.0" encoding="UTF-8"?>
<svg enable-background="new 0 0 512 512" viewBox="0 0 512 512" xmlns="http://www.w3.org/2000/svg" xml:space="preserve" version="1.1">
  <path style="fill-rule:evenodd;clip-rule:evenodd" d="m473.2 179.7h-160.3v-77.8h119.8l40.5-41.2h-202.3v161.1h161.8l40.5-42.1zm-372-152.5c3.5 0 6.9-1.4 9.3-3.9 2.2-2.3 3.4-5.4 3.1-8.6 0.2-3.2-1-6.2-3.1-8.6-2.6-2.3-5.9-3.4-9.3-3.1-3.4-0.3-6.8 0.8-9.3 3.1-2.4 2.2-3.8 5.3-3.9 8.6-0.2 3.3 1.3 6.5 3.9 8.6 2.5 2.5 5.8 3.9 9.3 3.9m-6.2-17.9c3.5-3.2 8.9-3.2 12.4 0 1.5 1.4 2.4 3.4 2.3 5.4 0.1 2.1-0.8 4.1-2.3 5.4-3.5 3.2-8.9 3.2-12.4 0-1.5-1.4-2.4-3.4-2.3-5.4-0.1-2 0.8-4 2.3-5.4m-17.1 20.3h3.9v-29.6h-3.9v8.6h-12.5v3.9h12.4v4.7h-12.4v3.8h12.4v8.6zm343.1 465.3h-3.1v7.8h3.1c2.1 0 3.9-1.7 3.9-3.9s-1.7-3.9-3.9-3.9m-231.1-475.4c1.2 1 2 2.4 2.3 3.9 6.6-1.6 12.6-5.1 17.1-10.1 4.6 4.9 10.6 8.4 17.1 10.1l2.3-3.9c-7.1-1.3-13.5-5.2-17.9-10.9l1.6-1.6h15.6v-4.7h-37.3v4.7h17.1c-3.5 6.9-10.2 11.5-17.9 12.5m81 492.5h217.1v-41.2h-217.1v41.2zm151.7-35.8c2 0.1 3.8 1.3 4.7 3.1h-3.1c0-0.9-0.7-1.6-1.6-1.6s-1.6 0.7-1.6 1.6l2.3 1.6c2.3 0.8 3.9 1.6 3.9 3.9-0.4 2.3-2.4 3.9-4.7 3.9s-3.9-1.6-5.4-3.9h3.1c0 0.8 1.6 1.6 2.3 1.6 0.8 0 1.6 0 1.6-0.8s-1.6-1.6-3.1-2.3c-1.7 0-3.1-1.4-3.1-3.1 0.4-2.4 2.4-4 4.7-4m-26.5 0h3.1v5.4h4.7v-5.4h3.1v12.4h-3.1v-4.6h-4.7v4.7h-3.1v-12.5zm-17.1 0h3.1v12.4h-3.1v-12.4zm-13.2 0h3.1l2.3 3.9 3.1 3.9v-7.8h2.3v12.4h-2.3l-2.3-3.1-3.1-3.9v7h-3.1v-12.4zm-24.9 29.6h-10.1v-14h10.1v3.1h-7v2.3h5.4v3.1h-5.4v2.3h7v3.2zm-1.6-17.1v-1.6h-5.4v1.6h-3.1l5.4-12.4h2.3l5.4 12.4h-4.6zm3.9-12.5h4.7c2.6 0 4.7 2.1 4.7 4.7 0 1.6-0.8 3.1-2.3 3.1l3.1 4.7h-3.9l-2.3-3.9h-1.6v3.9h-2.3v-12.5zm13.3 29.6h-3.9l-2.3-3.9-3.9-4.7v8.6h-3.1v-14h3.1l3.1 3.9 3.1 4.7v-8.6h3.9v14zm0.7-21v3.9h-3.1v-12.4h3.1v4.7l4.7-4.7h3.1l-5.4 5.4 5.4 7h-3.1l-3.9-4.7-0.8 0.8zm7.8 21h-7v-14h7c3.9 0 7 3.1 7 7 0.5 3.4-1.9 6.5-5.3 7h-1.7m18.7-10.9h-7v3.1h5.4v3.1h-5.4v4.7h-3.1v-14h10.1v3.1zm4.7 10.9h-3.1v-14h3.1v14zm-5.5-23.4c0-3.4 2.8-6.2 6.2-6.2 2.2 0 4.3 1.2 5.4 3.1h-3.1c0-0.8-1.6-0.8-2.3-0.8-1.7 0-3.1 1.4-3.1 3.1 0 1.9 1.3 3.5 3.1 3.9 2.3 0 3.1-0.8 3.1-2.3h-3.1v-2.3h5.4v7h-2.3c-0.7 1-1.9 1.6-3.1 1.6-3.4 0-6.2-2.7-6.3-6.2 0.1-0.3 0.1-0.6 0.1-0.9m18.7 23.4h-10.9v-14h10.9v3.1h-7v2.3h5.4v3.1h-5.4v2.3h7v3.2zm12.4 0h-10.9v-14h3.9v10.9h7v3.1zm0-17.1h-3.1v-9.3h-3.1v-3.1h10.1v3.1h-3.9v9.3zm7 17.1h-6.2v-14h6.2c4 0 7.4 3 7.8 7 0 3.9-3.1 7-7 7h-0.8m-246.6-488.7h8.6v-4.7h-8.6v-12.4h-3.9v28.8h3.9v-11.7zm-3.1 15.6c-3.9-1.7-8.2-2.5-12.4-2.3-4-0.1-8 0.7-11.7 2.3-2.8 1.6-4.6 4.6-4.7 7.8 0.1 3 1.9 5.8 4.7 7 3.7 1.7 7.7 2.5 11.7 2.3 4.3 0.2 8.5-0.6 12.4-2.3 2.6-1.7 4.1-4.7 3.9-7.8-0.1-2.9-1.6-5.5-3.9-7m-3.9 11.7-7.8 1.6-8.6-1.6c-2.3-1.6-3.9-2.3-3.9-3.9s1.6-3.1 3.9-4.7l8.6-1.6 7.8 1.6c1.8 0.9 3 2.7 3.1 4.7 0 1.8-1.3 3.5-3.1 3.9m-35.8-44.4h-3.9v28.8h3.9v-28.8zm28.8 3.1h-3.9v8.6h-14v-8.6h-3.9v23.3h21.8v-23.3zm-3.9 19.5h-14v-7h14v7zm-59.9 14.7v12.4h35.8v-4.7h-31.9v-3h31.1v-10.9h-35.8v3.9h31.1v2.3h-30.3zm110.5 12.5h3.9v-18.7h21v-4.7h-46v4.7h21v18.7zm225.6 285.6 40.5-42h-202.3v161.8h161.8l40.5-42h-160.3v-77.8h119.8zm49-98.1h-178.2l-40.5 42h218.7v-42zm-289.4-27.2h42l16.3-78.6v-70.8h-26.5l-31.8 149.4zm172.7 284.8h-3.1v7.8h3.1c2.1 0 3.9-1.7 3.9-3.9s-1.7-3.9-3.9-3.9m-28.8-14.8v3.9h2.3v-2.3c0-0.6-0.3-1.2-0.8-1.6m13.3 0.8-1.6-1.6h-2.3v3.1h2.3c0.9 0 1.6-0.7 1.6-1.5m-266.9-284.8c25.7 0.3 48.7-15.6 57.6-39.7h7l-11.7 53.7h42l31.9-149.4h-42l-11.7 53.7h-15.6c-11.6-31.4-46.5-47.5-78-35.9-31.4 11.6-47.5 46.5-35.9 78 8.8 23.5 31.2 39.3 56.4 39.6m0-83.3c12.5 0 22.6 10.1 22.6 22.6s-10.1 22.6-22.6 22.6-22.6-10.1-22.6-22.6 10.2-22.6 22.6-22.6m-39.7-72.3c-0.1 3.3 2.2 6.3 5.4 7 4.2 1.7 8.7 2.5 13.2 2.3 4.8 0.1 9.5-0.7 14-2.3 2.8-1.2 4.6-4 4.7-7 0.2-3.5-2.1-6.7-5.4-7.8-4.2-1.7-8.7-2.5-13.2-2.3-4.5 0-9 0.7-13.2 2.3-3.1 2.3-5.5 4.6-5.5 7.8m9.4-4.7 9.3-1.6c3.5-0.2 7 0.7 10.1 2.3 3.1 0.8 3.9 2.3 3.9 3.9s-0.8 2.3-3.9 3.9l-10.1 1.6-9.3-1.6c-3.1-1.6-4.7-2.3-4.7-3.9s1.6-3.1 4.7-4.6m9.3-33.5h-24.9v24.9h24.9v-24.9zm-3.9 20.3h-16.3v-15.6h16.3v15.6zm126.1 312.8 7.8-42h-161.1v42h24.9l-5.4 24.9h-19.5v41.2h145.5l7.8-41.2h-27.3l4.7-24.9h22.6zm-69.3 24.9h-23.3l5.4-24.9h23.3l-5.4 24.9zm-84 90.2h86.4l-86.4 24.2v37.3h218.7v-37.3h-85.7l85.6-24.1v-38.1h-218.6v38zm165.7-49h41.3l11.7-53.7v-54.5h-30.3l-22.7 108.2zm52.2-164.2h-172l6.2-27.2h-42l-9.3 45.9v23.3h176.6l40.5-42z"/>
</svg>
