<?xml version="1.0" encoding="UTF-8"?>
<svg viewBox="0 0 500 500" width="500" height="500" xmlns="http://www.w3.org/2000/svg" version="1.1">
  <path style="fill-rule:evenodd;" d="M368.3,308v4.8c0,2.8-2.6,3.8-3.6,3.8h-16.1c-2.1,0-4.5-.9-5.4-4.6-.2-1,0,0,0,0v3.7c0,3.9,3.6,5.3,5.1,5.3h26.1c1.4,0,5.1-1.4,5.1-5.3s0-9.6,0-9.6h0v-2.7c0-1.6-.9-2.5-1.7-3.1-2.9-2.6-15.5-12.2-15.5-12.2,0,0-3.6-2.9-4.7-4.1-.7-.8-1.7-1.6-1.7-3.1v-12.9c0-2.8,2.6-3.8,3.6-3.8h13.7c2.1,0,4.5.9,5.4,4.7,0,0,0-3.6,0-3.7,0-3.9-3.6-5.3-5.1-5.3h-23.6c-1.4,0-5.1,1.4-5.1,5.3v15.4h0v2.7c0,1.6.9,2.5,1.7,3.1,2.9,2.6,15.7,12.2,15.7,12.2,0,0,3.3,2.6,4.3,3.8.7.8,1.7,1.6,1.7,3.1v2.7h0Z"/>
  <g>
    <path style="fill-rule:evenodd;" d="M329.5,285.1v12.4c-1.7-5-3.6-8.7-10.5-12.4h10.5Z"/>
    <path style="fill-rule:evenodd;" d="M335.3,312c-.9,3.7-3.3,4.6-5.4,4.6h-16.6v-44.2c0-6.8-3.1-8.3-5.8-8.3h21.3c2.1,0,4.5.9,5.4,4.7.2,1,0,0,0,0v-3.7c0-3.9-3.6-5.3-5.1-5.3h-31.2c1.9,0,4.6,3,4.6,9.3v52.1h27.6c1.4,0,5.1-1.4,5.1-5.3v-3.7s.2-1,0,0h0Z"/>
  </g>
  <path style="fill-rule:evenodd;" d="M239,259.7h15.8l10.6,56.6h1.5c3.4.1,3-1.7,3.8-6.5l9.7-50.1h10.5l-10.5,57.1c-.4,2.7-2.7,4.3-4.9,4.2h-20.6l-10.1-54.9c-.9-2.8-3.8-6.3-5.9-6.4h0"/>
  <path style="fill-rule:evenodd;" d="M199.6,259.7c2.9,1.3,5.6,4.4,4.2,10.8l-9.7,50.5h11l5.4-28.3h10.1c2.1,0,4.4.9,5.3,4.5.3,1,4.5,23.8,4.5,23.8h11l-11.5-61.3h-30.4,0ZM211.4,287.9h8.8c1.6,0,3.3.1,4.4,1.8.2.4-3.9-20.3-3.9-20.3-1.2-4.7-2.6-5.2-5.3-5.2h-3.5c2.1.3,3.2,1.6,3.2,3,0,.7-.2,1.9-.4,3.3l-3.3,17.4h0Z"/>
  <path style="fill-rule:evenodd;" d="M121.9,259.7h11.1c3.5-.1,5.2,2.8,5.6,4.4l9.9,52.4h0l7.4-38-2-9.2h3.8c2.3,0,4.6,1.7,4.9,3.6l8.5,43.7,9.6-50.4c.4-2.5-1-5.9-3.2-6.4h7.7c3.9,0,6.5,2.4,6.3,5.2,0,1.6-10.2,56.1-10.2,56.1h-17.5l-4.9-22-3.6,22h-17.4l-10.4-54.9c-.8-2.8-3.5-6.4-5.6-6.4"/>
  <path style="fill-rule:evenodd;" d="M467.5,240.3v-28.6c0-2.9-2.2-4.5-4.7-4.5h-9.8c2.5,0,4.7,1.7,4.7,4.5v19.3c0,1.5-1.6,4.1-4.1,4.1h-11v-43.5c0-6.8-3.1-8.3-5.8-8.3h14.3c2.6,0,7.2,2.7,7.2,9.5h10.2v-3.8c0-7.3-5.1-10.1-8-10.1h-33.7c1.9,0,4.6,3,4.6,9.2v46.9c0,3.1,3.2,5.2,5.2,5.2h11c5.5,0,10.1-3,10.1-4.1v4.1h9.8"/>
  <path style="fill-rule:evenodd;" d="M381.7,240.3h11.1s0-48.6,0-48.6c0-6.8-3.1-8.3-5.8-8.3h15.3c2.6,0,5.8,1.5,5.8,8.3v48.7h11.1s0-49.3,0-49.3c0-5.8-4.8-12.1-12.7-12.1h-29.4c1.9,0,4.6,3,4.6,9.3v52.1h0s0,0,0,0Z"/>
  <path style="fill-rule:evenodd;" d="M354.1,179c1.9,0,4.6,3,4.6,9.3v52.1h10.6s0-56,0-56c0-3.9-3.6-5.3-5.1-5.3h-10.1,0Z"/>
  <path style="fill-rule:evenodd;" d="M304.5,179c1.9,0,4.6,3,4.6,9.3v52.1h11.3v-48.6c0-6.8-3.1-8.3-5.8-8.3h14.8c2.6,0,7.2,2.5,7.2,9.3v7.3c0,5-6.5,7.2-10.3,7.2h1.3c3.7,0,9,4.9,9,14.8v13.8c0,9.9,11.6,11.3,17.7,11.3h.2c-2.2,0-8-1.3-8-10s0-14.5,0-15c0-10-5.3-14.8-8.9-14.8,2.9,0,8-2.1,8-6.8v-11.4c0-7.3-5.1-10.1-8-10.1h-33.1Z"/>
  <g>
    <path style="fill-rule:evenodd;" d="M292.1,204.4v12.4c-1.7-5-3.6-8.7-10.5-12.4,0,0,10.5,0,10.5,0Z"/>
    <path style="fill-rule:evenodd;" d="M297.9,231.3c-.9,3.7-3.3,4.7-5.4,4.7h-16.6v-44.2c0-6.8-3.1-8.3-5.8-8.3h21.3c2.1,0,4.5.9,5.4,4.7.2,1,0,0,0,0v-3.7c0-3.9-3.6-5.3-5.1-5.3h-31.2c1.9,0,4.6,3,4.6,9.3v52.1h27.6c1.4,0,5.1-1.4,5.1-5.3v-3.7s.2-1,0,0Z"/>
  </g>
  <path style="fill-rule:evenodd;" d="M233.8,208.3c2.6,0,5.8,1.5,5.8,8.3v23.7h10.6v-56c0-3.9-3.6-5.3-5.1-5.3h-10.1c1.9,0,4.6,3,4.6,9.3v18.8c-1.1-2.9-3.2-3.7-5.1-3.7h-15.8v-19.1c0-3.9-3.6-5.3-5.1-5.3h-10.1c1.9,0,4.6,3,4.6,9.3v52.1h10.6v-32h15.2,0Z"/>
  <path style="fill-rule:evenodd;" d="M164.3,185.2h10.1v55.1h10.5v-55.1h9.7c1.1,0,3.7.9,4.7,3.3v-4.2c0-3.9-3.6-5.3-5.1-5.3h0-29.7c-1.4,0-5.1,1.4-5.1,5.3v4.2c1-2.4,3.6-3.3,4.7-3.3h0Z"/>
  <path style="fill-rule:evenodd;" d="M136.5,179c1.9,0,4.6,3,4.6,9.3v43s-1.3,6.9-10.2,6.9-10.5-6.9-10.5-6.9v-47c0-3.9-3.6-5.3-5.1-5.3h-10.2c1.9,0,4.6,3,4.6,9.3v44.9s2.5,9,21,9,21-10.9,21-10.9v-47c0-3.9-3.6-5.3-5-5.3h-10.4,0Z"/>
  <path style="fill-rule:evenodd;" d="M31.4,179.1h11.1c3.5-.1,5.2,2.8,5.6,4.4l9.9,52.5h0l7.4-38-2-9.2h3.8c2.3,0,4.6,1.7,4.9,3.6l8.5,43.7,9.7-50.4c.4-2.5-1-5.9-3.2-6.4h7.7c3.9,0,6.5,2.4,6.3,5.2,0,1.6-10.2,56.1-10.2,56.1h-17.5l-4.9-22-3.5,22h-17.4l-10.4-54.9c-.8-2.8-3.5-6.4-5.6-6.5"/>
</svg>
